<?xml version="1.0" standalone="no"?>
<!DOCTYPE svg PUBLIC "-//W3C//DTD SVG 20010904//EN"
 "http://www.w3.org/TR/2001/REC-SVG-20010904/DTD/svg10.dtd">
<svg version="1.0" xmlns="http://www.w3.org/2000/svg"
 width="166.000000pt" height="165.000000pt" viewBox="0 0 166.000000 165.000000"
 preserveAspectRatio="xMidYMid meet">

<g transform="translate(0.000000,165.000000) scale(0.100000,-0.100000)"
fill="#000000" stroke="none">
<path d="M290 1557 c-105 -53 -86 -242 31 -302 l26 -14 -18 -54 c-22 -66 -39
-165 -39 -233 0 -49 -2 -53 -42 -80 -152 -105 -202 -331 -114 -510 41 -83 86
-122 178 -156 53 -19 58 -23 58 -50 0 -18 10 -39 26 -55 25 -25 28 -26 125
-20 69 3 115 1 152 -9 69 -18 285 -18 354 0 37 10 83 12 152 9 97 -6 100 -5
125 20 16 16 26 37 26 56 0 25 5 31 38 42 98 31 156 79 197 159 31 60 49 175
40 249 -12 102 -83 224 -158 270 -34 21 -34 22 -40 114 -4 56 -16 125 -30 170
l-25 76 34 20 c49 29 87 92 92 155 8 102 -46 156 -156 156 -77 0 -125 -19
-178 -71 l-40 -40 -65 18 c-45 13 -100 18 -189 18 -89 0 -144 -5 -189 -18
l-65 -18 -40 40 c-23 22 -58 47 -78 56 -45 18 -153 20 -188 2z m705 -128 c72
-13 104 -29 156 -76 85 -77 135 -183 146 -311 5 -66 4 -75 -9 -69 -9 3 -36 11
-59 18 -24 7 -45 13 -46 14 -1 0 5 21 13 45 30 86 0 186 -70 229 -65 41 -147
19 -200 -52 -17 -23 -21 -43 -21 -103 l0 -74 -55 0 -55 0 0 74 c0 83 -14 112
-75 154 -126 85 -279 -82 -215 -235 8 -20 14 -37 13 -37 -2 -1 -32 -11 -68
-23 -36 -12 -73 -25 -82 -28 -16 -6 -18 -1 -18 41 0 109 48 239 115 313 44 49
138 99 218 116 77 17 233 19 312 4z m-288 -212 c43 -39 54 -127 20 -169 -7
-10 -37 -18 -79 -23 l-67 -6 -15 30 c-35 67 -11 161 47 186 37 16 63 11 94
-18z m378 19 c60 -25 85 -119 49 -187 l-15 -30 -67 7 c-37 3 -70 8 -74 10 -15
9 -30 77 -24 109 10 49 50 95 94 104 1 1 18 -5 37 -13z m-7 -272 c194 -40 296
-96 368 -201 50 -73 69 -148 61 -243 -10 -117 -56 -209 -126 -253 -33 -20 -48
-22 -161 -21 -110 1 -138 5 -230 32 -58 18 -121 32 -140 32 -19 0 -82 -14
-140 -31 -134 -39 -279 -49 -361 -26 -81 24 -132 65 -165 134 -25 49 -30 73
-32 155 -4 88 -1 103 23 155 65 142 267 249 536 282 94 12 271 5 367 -15z
m-107 -741 c94 -26 99 -29 99 -54 0 -24 -6 -28 -52 -40 -68 -18 -268 -18 -335
0 -47 12 -53 16 -53 40 0 25 6 28 93 53 117 34 130 34 248 1z m-403 -60 c-3
-28 -4 -28 -73 -28 -64 0 -70 2 -73 22 -3 20 2 22 55 26 32 2 66 4 76 5 14 2
18 -4 15 -25z m669 17 c40 0 44 -2 41 -22 -3 -21 -8 -23 -73 -23 -70 0 -70 0
-73 29 -3 28 -2 29 28 22 18 -3 53 -6 77 -6z"/>
<path d="M650 1121 c0 -24 25 -34 40 -16 15 18 5 35 -21 35 -12 0 -19 -7 -19
-19z"/>
<path d="M1005 1130 c-9 -15 14 -40 31 -33 22 8 18 43 -5 43 -11 0 -23 -5 -26
-10z"/>
<path d="M335 771 c-90 -55 -118 -145 -76 -238 43 -94 171 -129 259 -71 111
74 105 237 -12 309 -42 25 -130 26 -171 0z"/>
<path d="M1195 771 c-65 -40 -95 -92 -95 -162 0 -137 163 -223 277 -147 112
74 107 237 -11 309 -42 25 -130 26 -171 0z"/>
</g>
</svg>
