<?xml version="1.0" standalone="no"?>
<!DOCTYPE svg PUBLIC "-//W3C//DTD SVG 20010904//EN"
 "http://www.w3.org/TR/2001/REC-SVG-20010904/DTD/svg10.dtd">
<svg version="1.0" xmlns="http://www.w3.org/2000/svg"
 width="976.000000pt" height="260.000000pt" viewBox="0 0 976.000000 260.000000"
 preserveAspectRatio="xMidYMid meet">

<g transform="translate(0.000000,260.000000) scale(0.100000,-0.100000)"
fill="#000000" stroke="none">
<path d="M452 2522 c-59 -17 -119 -66 -146 -119 -19 -38 -21 -143 -3 -193 28
-80 101 -163 173 -198 24 -11 34 -21 30 -32 -3 -8 -19 -53 -35 -99 -34 -94
-51 -203 -51 -332 l0 -86 -69 -47 c-85 -56 -178 -156 -219 -233 -48 -92 -76
-219 -69 -316 19 -291 162 -474 421 -543 64 -18 66 -19 66 -50 0 -71 36 -121
98 -135 52 -12 205 -11 256 2 35 9 56 7 107 -6 142 -36 216 -45 379 -45 163 0
237 9 379 45 51 13 72 15 107 6 55 -14 208 -14 258 0 64 18 96 60 96 126 l0
38 68 19 c75 21 170 66 219 103 35 27 100 108 132 166 39 71 61 177 61 299 0
149 -30 255 -98 348 -27 36 -148 160 -157 160 -2 0 -25 14 -50 32 l-45 32 0
115 c0 123 -27 257 -69 351 -11 25 -21 50 -21 57 0 6 21 22 46 35 125 62 208
232 169 347 -28 86 -84 136 -177 159 -62 16 -108 15 -193 -3 -111 -24 -180
-64 -248 -144 l-27 -33 -83 21 c-132 33 -203 41 -367 41 -164 0 -235 -8 -366
-41 l-81 -21 -52 55 c-60 64 -131 101 -233 122 -85 18 -137 17 -206 -3z m1198
-219 c194 -31 357 -160 451 -353 41 -86 79 -241 79 -326 l0 -72 -62 20 c-35
11 -83 25 -108 30 -25 6 -47 12 -49 14 -2 1 7 25 20 51 36 73 39 181 7 253
-81 181 -282 226 -426 96 -58 -53 -87 -124 -86 -216 0 -41 6 -85 12 -97 l13
-23 -109 0 -109 0 14 53 c47 175 -85 356 -260 357 -197 1 -328 -222 -243 -413
14 -32 26 -59 26 -61 0 -3 -18 -7 -39 -11 -41 -7 -169 -50 -233 -79 l-38 -16
0 42 c1 313 127 546 359 667 46 24 97 47 114 52 188 56 447 69 667 32z m-540
-318 c57 -30 100 -108 100 -183 0 -52 -21 -112 -44 -127 -12 -7 -68 -18 -124
-24 -118 -14 -126 -11 -163 61 -37 73 -13 195 49 251 49 44 122 53 182 22z
m673 14 c109 -30 167 -167 118 -281 -33 -77 -44 -81 -158 -68 -123 14 -139 21
-158 66 -45 107 3 234 105 278 42 18 45 19 93 5z m-168 -420 c248 -24 491 -92
620 -172 33 -20 149 -114 165 -134 73 -89 105 -153 126 -254 27 -127 5 -309
-51 -418 -29 -58 -107 -140 -165 -174 -83 -48 -243 -60 -435 -32 -99 14 -282
57 -314 74 -9 5 -51 14 -94 21 -61 10 -93 10 -155 0 -42 -7 -84 -16 -93 -21
-32 -17 -215 -60 -314 -74 -269 -39 -472 2 -603 120 -93 84 -133 185 -140 357
-3 102 -1 125 18 184 13 37 32 84 43 103 26 46 122 146 167 174 19 11 37 24
40 28 10 13 119 67 187 92 198 75 447 125 698 141 62 3 169 -2 300 -15z m-41
-1209 c56 -15 125 -34 154 -41 l52 -13 0 -43 c0 -52 -3 -54 -147 -77 -175 -28
-454 -18 -598 22 -27 8 -30 13 -33 53 l-3 45 93 23 c51 13 113 30 138 38 114
39 186 37 344 -7z m-674 -98 c0 -21 -5 -43 -12 -50 -15 -15 -201 -16 -229 -2
-13 7 -19 21 -19 44 l0 34 58 -4 c46 -4 116 2 195 15 4 0 7 -16 7 -37z m1137
24 l103 -1 0 -32 c0 -22 -6 -36 -19 -43 -28 -14 -214 -13 -229 2 -7 7 -12 29
-12 50 0 37 1 38 28 31 15 -3 73 -7 129 -7z"/>
<path d="M1044 1815 c-12 -48 36 -73 70 -36 15 16 15 22 4 40 -19 31 -66 28
-74 -4z"/>
<path d="M1661 1822 c-14 -26 13 -64 41 -60 29 4 46 33 32 56 -16 25 -60 28
-73 4z"/>
<path d="M570 1266 c-110 -23 -206 -107 -231 -200 -29 -107 17 -241 103 -303
202 -144 489 -27 506 207 4 57 1 76 -20 121 -47 101 -121 157 -233 178 -32 6
-61 11 -64 10 -3 0 -31 -6 -61 -13z"/>
<path d="M2070 1266 c-71 -16 -112 -38 -159 -87 -59 -60 -75 -102 -76 -189 0
-122 51 -202 165 -258 47 -23 67 -27 145 -27 81 0 95 3 143 29 80 45 126 97
151 172 26 79 26 80 0 156 -38 114 -121 185 -243 207 -33 6 -62 11 -65 10 -3
0 -31 -6 -61 -13z"/>
<path d="M3370 1772 c-107 -31 -170 -126 -155 -234 13 -91 81 -139 260 -183
164 -40 195 -63 195 -140 -1 -64 -42 -102 -130 -116 -68 -11 -139 6 -275 67
-14 6 -59 -62 -52 -80 3 -7 41 -28 84 -47 72 -30 86 -33 188 -32 161 0 241 36
284 127 27 59 27 120 -1 176 -32 63 -101 102 -241 135 -62 15 -129 36 -149 48
-69 38 -73 121 -7 168 59 42 206 41 289 -1 l39 -20 25 42 25 43 -22 12 c-90
51 -250 67 -357 35z"/>
<path d="M4084 1772 c-70 -24 -99 -45 -131 -93 -23 -35 -27 -51 -26 -110 1
-53 6 -75 23 -99 39 -55 80 -73 334 -141 59 -16 96 -58 96 -109 0 -22 -7 -52
-16 -66 -49 -74 -212 -75 -357 -2 -22 11 -40 18 -41 16 -1 -2 -12 -16 -24 -32
-12 -16 -22 -35 -22 -43 0 -20 113 -69 191 -83 74 -14 195 -6 248 16 121 51
175 177 121 284 -35 69 -94 101 -260 140 -145 33 -180 58 -180 125 0 42 8 56
46 88 47 39 204 38 283 -3 l39 -19 27 40 c15 23 23 45 18 49 -4 5 -43 20 -85
34 -94 32 -206 35 -284 8z"/>
<path d="M6805 1783 c-108 -24 -188 -91 -225 -189 -17 -46 -20 -77 -19 -202 0
-110 5 -159 17 -194 25 -69 82 -132 149 -164 51 -24 70 -28 158 -28 162 -1
256 49 315 169 24 47 25 59 25 220 0 161 -1 173 -25 220 -39 79 -97 130 -175
154 -63 20 -166 26 -220 14z m220 -127 c50 -38 71 -76 85 -153 14 -71 9 -203
-10 -266 -12 -39 -59 -100 -91 -118 -36 -19 -113 -28 -164 -18 -67 13 -112 45
-143 104 -23 44 -27 64 -30 168 -6 172 24 252 110 297 36 18 56 21 125 17 70
-3 86 -7 118 -31z"/>
<path d="M4650 1395 l0 -385 60 0 60 0 0 180 0 180 190 0 190 0 0 -180 0 -180
55 0 55 0 0 385 0 385 -55 0 -55 0 0 -160 0 -160 -190 0 -190 0 0 160 0 160
-60 0 -60 0 0 -385z"/>
<path d="M5462 1548 c38 -128 72 -242 75 -253 5 -21 42 -143 70 -232 l16 -53
57 0 57 0 31 103 c16 56 58 196 93 311 l63 208 22 -68 c12 -38 34 -112 49
-164 36 -124 57 -195 90 -303 l27 -88 56 3 57 3 28 95 c39 128 64 212 87 290
10 36 28 94 39 130 50 165 71 236 71 243 0 4 -24 7 -54 7 l-54 0 -20 -67 c-26
-89 -63 -224 -97 -348 -14 -55 -34 -124 -43 -153 l-17 -52 -39 132 c-22 73
-53 176 -69 228 -15 52 -35 120 -43 150 -29 109 -30 110 -89 110 l-53 0 -16
-47 c-12 -38 -131 -437 -165 -552 -5 -18 -13 -1 -35 80 -16 57 -34 124 -41
149 -8 25 -28 99 -45 165 -18 66 -38 138 -44 160 l-13 40 -60 3 -60 3 69 -233z"/>
<path d="M7390 1395 l0 -385 60 0 60 0 0 160 0 160 103 0 104 0 40 -87 c22
-49 55 -121 73 -160 l33 -73 63 0 63 0 -80 166 c-43 91 -79 169 -79 172 0 4
20 19 44 33 64 39 90 99 84 193 -4 60 -10 80 -32 109 -62 81 -121 97 -358 97
l-178 0 0 -385z m397 272 c84 -44 84 -180 0 -224 -23 -12 -65 -18 -154 -21
l-123 -4 0 137 0 137 123 -4 c89 -3 131 -9 154 -21z"/>
<path d="M8140 1395 l0 -385 255 0 255 0 0 45 0 45 -200 0 -200 0 0 340 0 340
-55 0 -55 0 0 -385z"/>
<path d="M8770 1395 l0 -387 193 4 c227 5 282 20 354 94 59 61 76 125 76 289
0 184 -27 260 -113 320 -74 51 -110 59 -317 63 l-193 4 0 -387z m387 270 c52
-22 72 -42 99 -100 21 -44 24 -65 24 -171 0 -110 -2 -125 -26 -173 -16 -32
-41 -62 -63 -76 -39 -27 -135 -44 -238 -45 l-63 0 0 290 0 290 115 0 c81 0
127 -5 152 -15z"/>
</g>
</svg>
